<svg width="20" height="20" viewBox="0 0 20 20" fill="none" xmlns="http://www.w3.org/2000/svg">
<path d="M20 4.16797H0V15.8359H20V4.16797Z" fill="white"/>
<path d="M20 4.16797H0V8.05859H20V4.16797Z" fill="#F0953D"/>
<path d="M20 11.9453H0V15.8359H20V11.9453Z" fill="#3D8A41"/>
<path d="M10 8.25C9.03516 8.25 8.25 9.03516 8.25 10C8.25 10.9648 9.03516 11.75 10 11.75C10.9648 11.75 11.75 10.9648 11.75 10C11.75 9.03516 10.9648 8.25 10 8.25ZM10 8.42188L9.95703 9.30078L10.0039 9.80078L10.0508 9.30078L10.0078 8.42188C10.0547 8.42188 10.0977 8.42578 10.1406 8.42969C10.1406 8.43359 10.1406 8.43359 10.1406 8.4375C10.1406 8.47656 10.1719 8.51172 10.2148 8.51172C10.25 8.51172 10.2812 8.48438 10.2852 8.44922C10.3281 8.45703 10.3711 8.46484 10.4141 8.47656L10.1445 9.3125L10.0586 9.80859L10.2344 9.33594L10.418 8.47656C10.4609 8.48828 10.5039 8.5 10.543 8.51563C10.5391 8.52344 10.5391 8.53125 10.5391 8.54297C10.5391 8.58203 10.5703 8.61328 10.6133 8.61328C10.6445 8.61328 10.668 8.59375 10.6797 8.57031C10.7187 8.58984 10.7578 8.60937 10.7969 8.63281L10.3203 9.37109L10.1094 9.82812L10.4023 9.41797L10.8047 8.63281C10.8437 8.65625 10.8789 8.67969 10.9141 8.70313C10.9062 8.71484 10.8984 8.73047 10.8984 8.74609C10.8984 8.78516 10.9297 8.82031 10.9727 8.82031C10.9961 8.82031 11.0156 8.80859 11.0312 8.79297C11.0664 8.82031 11.0977 8.85156 11.1289 8.88281L10.4766 9.47266L10.1562 9.85937L10.543 9.53906L11.1328 8.88672C11.1641 8.91797 11.1953 8.94922 11.2227 8.98437C11.207 8.99609 11.1953 9.01953 11.1953 9.03906C11.1953 9.07812 11.2266 9.11328 11.2695 9.11328C11.2852 9.11328 11.3008 9.10937 11.3125 9.09766C11.3359 9.13281 11.3633 9.17187 11.3828 9.21094L10.582 9.60937L10.1719 9.90234L10.6289 9.69141L11.3672 9.21094C11.3906 9.25 11.4102 9.29297 11.4297 9.33594C11.4023 9.34766 11.3867 9.37109 11.3867 9.40234C11.3867 9.44141 11.418 9.47656 11.4609 9.47656C11.4727 9.47656 11.4805 9.47656 11.4883 9.47266C11.5039 9.51172 11.5156 9.55078 11.5273 9.59375L10.668 9.77734L10.1953 9.95312L10.6914 9.86719L11.5273 9.59766C11.5391 9.64062 11.5469 9.68359 11.5547 9.72656C11.5195 9.73047 11.4922 9.76172 11.4922 9.79687C11.4922 9.83594 11.5234 9.87109 11.5664 9.87109C11.5703 9.87109 11.5703 9.87109 11.5742 9.87109C11.5781 9.91406 11.582 9.95703 11.582 10.0039L10.7031 9.96094L10.1992 10.0078L10.6992 10.0547L11.5781 10.0117C11.5781 10.0547 11.5742 10.1016 11.5703 10.1445C11.5664 10.1445 11.5664 10.1445 11.5625 10.1445C11.5234 10.1445 11.4883 10.1758 11.4883 10.2187C11.4883 10.2539 11.5156 10.2852 11.5508 10.2891C11.543 10.332 11.5352 10.375 11.5234 10.418L11.2266 10.3203L10.6875 10.1445L10.1914 10.0586L10.6641 10.2344L11.5234 10.418C11.5117 10.4609 11.5 10.5039 11.4844 10.543C11.4805 10.543 11.4766 10.5391 11.4727 10.5391C11.4687 10.5391 11.4648 10.5391 11.457 10.5391C11.418 10.5391 11.3828 10.5703 11.3828 10.6133C11.3828 10.625 11.3828 10.6328 11.3867 10.6406C11.3906 10.6523 11.3984 10.6602 11.4062 10.668L11.4102 10.6719L11.4141 10.6758L11.418 10.6797C11.3984 10.7187 11.3789 10.7578 11.3555 10.7969L10.6172 10.3203L10.1602 10.1094L10.3984 10.2773L10.5703 10.3984L11.3516 10.7969C11.3281 10.8359 11.3047 10.875 11.2773 10.9102C11.2656 10.9023 11.25 10.8984 11.2344 10.8984C11.1953 10.8984 11.1602 10.9297 11.1602 10.9727C11.1602 10.9961 11.1719 11.0156 11.1875 11.0273C11.1602 11.0625 11.1289 11.0937 11.1016 11.125L10.5117 10.4727L10.125 10.1523L10.4453 10.5391L11.0977 11.1289C11.0664 11.1602 11.0352 11.1875 11.0039 11.2148C10.9922 11.2031 10.9766 11.1992 10.957 11.1992C10.918 11.1992 10.8828 11.2305 10.8828 11.2734C10.8828 11.2852 10.8867 11.293 10.8906 11.3047C10.8516 11.332 10.8125 11.3555 10.7734 11.3789L10.3711 10.5977L10.0781 10.1875L10.2891 10.6445L10.7656 11.3828C10.7266 11.4062 10.6875 11.4258 10.6484 11.4414C10.6367 11.418 10.6133 11.3984 10.582 11.3984C10.543 11.3984 10.5078 11.4297 10.5078 11.4727C10.5078 11.4805 10.5078 11.4922 10.5117 11.5C10.4687 11.5156 10.4258 11.5273 10.3828 11.5391L10.1992 10.6797L10.0234 10.207L10.1094 10.7031L10.3789 11.5391C10.3359 11.5508 10.293 11.5586 10.25 11.5664C10.2461 11.5312 10.2148 11.5039 10.1797 11.5039C10.1406 11.5039 10.1055 11.5352 10.1055 11.5781C10.1055 11.582 10.1055 11.582 10.1055 11.5859C10.0625 11.5898 10.0195 11.5937 9.97266 11.5937L10.0195 10.7148L9.97266 10.2148L9.92578 10.7148L9.97266 11.5937C9.92578 11.5937 9.88281 11.5898 9.83594 11.5859C9.83594 11.582 9.83594 11.582 9.83594 11.5781C9.83594 11.5391 9.80469 11.5039 9.76172 11.5039C9.72656 11.5039 9.69531 11.5312 9.69141 11.5664C9.64844 11.5586 9.60547 11.5508 9.56641 11.5391L9.83594 10.7031L9.92187 10.207L9.74609 10.6797L9.5625 11.5391C9.51953 11.5273 9.47656 11.5156 9.4375 11.5C9.44141 11.4922 9.44141 11.4844 9.44141 11.4727C9.44141 11.4336 9.41016 11.3984 9.37109 11.3984C9.33984 11.3984 9.31641 11.418 9.30469 11.4414C9.26562 11.4219 9.22656 11.4023 9.1875 11.3789L9.66406 10.6406L9.875 10.1836L9.58203 10.5937L9.20703 11.3672C9.16797 11.3437 9.13281 11.3203 9.09375 11.2969C9.10156 11.2852 9.10937 11.2695 9.10937 11.2539C9.10937 11.2148 9.07812 11.1797 9.03516 11.1797C9.01172 11.1797 8.99219 11.1914 8.98047 11.207C8.94531 11.1797 8.91406 11.1484 8.88281 11.1211L9.53516 10.5312L9.85547 10.1445L9.46875 10.4648L8.87891 11.1172C8.84766 11.0859 8.81641 11.0547 8.78906 11.0195C8.80469 11.0078 8.81641 10.9844 8.81641 10.9648C8.81641 10.9258 8.78516 10.8906 8.74609 10.8906C8.73047 10.8906 8.71484 10.8945 8.70313 10.9062C8.67969 10.8711 8.65234 10.832 8.63281 10.793L9.41797 10.3906L9.82812 10.0977L9.37109 10.3086L8.63281 10.7891C8.60937 10.75 8.58984 10.7148 8.57422 10.6758C8.60156 10.6641 8.62109 10.6406 8.62109 10.6094C8.62109 10.5703 8.58984 10.5352 8.54688 10.5352C8.53516 10.5352 8.52344 10.5391 8.51563 10.543C8.5 10.5 8.48828 10.457 8.47656 10.4141L9.33594 10.2305L9.80859 10.0547L9.3125 10.1406L8.47656 10.4102C8.46484 10.3672 8.45703 10.3242 8.44922 10.2812C8.48438 10.2773 8.51172 10.2461 8.51172 10.2109C8.51172 10.1719 8.48047 10.1367 8.4375 10.1367C8.43359 10.1367 8.43359 10.1367 8.42969 10.1367C8.42578 10.0937 8.42578 10.0508 8.42188 10.0039L9.30078 10.0469L9.80078 10L9.30078 9.95312L8.42188 10C8.42188 9.95703 8.42578 9.91016 8.42969 9.86719C8.43359 9.86719 8.4375 9.86719 8.44141 9.86719C8.48047 9.86719 8.51563 9.83594 8.51563 9.79297C8.51563 9.75391 8.48828 9.72266 8.44922 9.71875C8.45703 9.67578 8.46484 9.63281 8.47656 9.58984L9.3125 9.85937L9.80859 9.94531L9.33594 9.76953L8.47656 9.58594C8.48828 9.54297 8.5 9.5 8.51563 9.46094C8.52344 9.46484 8.53125 9.46484 8.54297 9.46484C8.58203 9.46484 8.61719 9.43359 8.61719 9.39453C8.61719 9.36328 8.59766 9.33984 8.57422 9.32812C8.59375 9.28906 8.61328 9.25 8.63672 9.21094L9.375 9.6875L9.83203 9.89844L9.42187 9.60547L8.63281 9.20703C8.65625 9.16797 8.67969 9.13281 8.70313 9.09375C8.71484 9.10156 8.73047 9.10937 8.74609 9.10937C8.78516 9.10937 8.82031 9.07812 8.82031 9.03906C8.82031 9.01562 8.80859 8.99609 8.79297 8.98047C8.82031 8.94531 8.85156 8.91406 8.88281 8.88281L9.47266 9.53516L9.85937 9.85547L9.53906 9.46875L8.88672 8.87891C8.91797 8.84766 8.94922 8.81641 8.98437 8.78906C8.99609 8.80469 9.01953 8.81641 9.03906 8.81641C9.07812 8.81641 9.10937 8.78516 9.10937 8.74609C9.10937 8.73047 9.10547 8.71484 9.09766 8.70313C9.13281 8.67969 9.17187 8.65234 9.20703 8.63281L9.60937 9.41797L9.90234 9.82812L9.69141 9.37109L9.21484 8.63281C9.25391 8.60937 9.28906 8.58984 9.33203 8.57422C9.34375 8.60156 9.36719 8.62109 9.39844 8.62109C9.4375 8.62109 9.47266 8.58984 9.47266 8.55078C9.47266 8.53906 9.46875 8.53125 9.46484 8.51953C9.50781 8.50391 9.55078 8.49219 9.59375 8.48047L9.77734 9.33984L9.95312 9.8125L9.86719 9.31641L9.59766 8.48047C9.64062 8.46875 9.68359 8.46094 9.72656 8.45312C9.73047 8.48828 9.76172 8.51563 9.79687 8.51563C9.83594 8.51563 9.87109 8.48438 9.87109 8.44141C9.87109 8.4375 9.87109 8.4375 9.87109 8.43359C9.91016 8.42187 9.95312 8.42188 10 8.42188Z" fill="#2A2874"/>
<path d="M10 9.73828C10.1445 9.73828 10.2617 9.85547 10.2617 10C10.2617 10.1445 10.1445 10.2617 10 10.2617C9.85547 10.2617 9.73828 10.1445 9.73828 10C9.73828 9.85547 9.85547 9.73828 10 9.73828Z" fill="white"/>
<path d="M10 9.79688C10.1133 9.79688 10.2031 9.88672 10.2031 10C10.2031 10.1133 10.1133 10.2031 10 10.2031C9.88672 10.2031 9.79688 10.1133 9.79688 10C9.79688 9.89062 9.89062 9.79688 10 9.79688Z" fill="#2A2874"/>
</svg>
