<svg width="20" height="20" viewBox="0 0 20 20" fill="none" xmlns="http://www.w3.org/2000/svg">
<g clip-path="url(#clip0_171_11154)">
<path d="M12.6157 9.84374C12.282 9.62946 11.9198 9.46317 11.5398 9.34976C11.3067 9.27926 11.0486 9.2103 10.7812 9.14382C10.5486 9.07897 10.2717 9.01244 9.92934 8.93716C9.52162 8.85173 9.12144 8.73361 8.73267 8.58396C8.53237 8.50604 8.35561 8.37764 8.21957 8.21125C8.12028 8.07517 8.07321 7.90794 8.08692 7.74006C8.08647 7.55996 8.14635 7.38491 8.25701 7.24282C8.41224 7.06074 8.61366 6.92383 8.8401 6.8465C9.22151 6.71549 9.62347 6.65456 10.0266 6.66666C10.338 6.66167 10.6484 6.7028 10.9478 6.78872C11.1466 6.84438 11.3338 6.93504 11.5008 7.05646C11.6086 7.13335 11.7007 7.23034 11.7718 7.34211C11.8234 7.43881 11.8936 7.52437 11.9784 7.59389C12.0631 7.6634 12.1608 7.7155 12.2657 7.7472C12.3707 7.77891 12.4808 7.78959 12.5899 7.77863C12.699 7.76768 12.8048 7.73531 12.9013 7.68337C12.9979 7.63143 13.0832 7.56095 13.1525 7.47597C13.2217 7.39099 13.2735 7.29318 13.3049 7.18814C13.3363 7.08311 13.3466 6.97291 13.3353 6.86387C13.324 6.75483 13.2913 6.6491 13.2391 6.55272C13.0632 6.24187 12.8258 5.9702 12.5412 5.75439C12.2126 5.50198 11.84 5.31294 11.4422 5.19693C10.9828 5.0611 10.5056 4.99472 10.0266 4.99999C9.41787 4.98705 8.81198 5.08608 8.23907 5.29215C7.72072 5.4803 7.26523 5.80951 6.92395 6.24266C6.59735 6.67357 6.42046 7.19937 6.42021 7.74006C6.40671 8.27835 6.57723 8.80513 6.90361 9.2334C7.21867 9.63027 7.63167 9.93823 8.10194 10.1269C8.45729 10.2636 8.82113 10.3772 9.19116 10.4669C9.19813 10.4692 9.20282 10.4747 9.20993 10.4769C9.36943 10.5249 9.62456 10.5892 9.99321 10.6689C10.1368 10.6997 10.2722 10.7338 10.4075 10.7676C10.4206 10.7716 10.4396 10.7757 10.4522 10.7796L10.4673 10.7819C10.6742 10.8346 10.8731 10.8892 11.0552 10.9448C11.2796 11.0103 11.4938 11.1067 11.6916 11.2313C11.8147 11.3088 11.918 11.4138 11.9935 11.5381C12.067 11.6896 12.101 11.8573 12.0924 12.0256C12.1041 12.2433 12.0412 12.4586 11.9142 12.6359C11.7425 12.8592 11.5103 13.0284 11.2452 13.1234C10.8506 13.2757 10.4294 13.3471 10.0066 13.3333C9.51734 13.3523 9.03061 13.2541 8.58696 13.0469C8.38222 12.9378 8.20635 12.7816 8.07385 12.5911C7.98094 12.4692 7.92286 12.3244 7.9058 12.172C7.9058 11.951 7.818 11.7391 7.66172 11.5828C7.50544 11.4265 7.29348 11.3387 7.07246 11.3387C6.85145 11.3387 6.63949 11.4265 6.48321 11.5828C6.32693 11.7391 6.23913 11.951 6.23913 12.172C6.25311 12.6634 6.41459 13.1392 6.7026 13.5376C6.99047 13.9524 7.37399 14.2919 7.82076 14.5272C8.50052 14.859 9.25052 15.0212 10.0066 15C10.6491 15.0154 11.288 14.9006 11.8849 14.6623C12.4397 14.4495 12.9214 14.0813 13.2724 13.6019C13.6059 13.1344 13.7768 12.5703 13.7586 11.9962C13.7664 11.5513 13.6588 11.1119 13.4461 10.721C13.2409 10.3683 12.9566 10.068 12.6157 9.84374ZM18.6342 11.4095C18.8591 10.0397 18.7547 8.63611 18.3295 7.31473C17.9043 5.99335 17.1706 4.79221 16.189 3.81067C15.2075 2.82913 14.0063 2.09542 12.685 1.67023C11.3636 1.24504 9.95996 1.1406 8.59021 1.36555C7.57906 0.880768 6.44237 0.721804 5.33702 0.910597C4.23168 1.09939 3.21219 1.62663 2.41927 2.41955C1.62636 3.21246 1.09912 4.23195 0.910323 5.3373C0.721529 6.44264 0.880493 7.57933 1.36527 8.59048C1.14033 9.96024 1.24477 11.3639 1.66996 12.6852C2.09515 14.0066 2.82886 15.2078 3.8104 16.1893C4.79193 17.1708 5.99308 17.9046 7.31446 18.3297C8.63584 18.7549 10.0395 18.8594 11.4092 18.6344C12.4204 19.1192 13.5571 19.2782 14.6624 19.0894C15.7678 18.9006 16.7872 18.3733 17.5802 17.5804C18.3731 16.7875 18.9003 15.768 19.0891 14.6627C19.2779 13.5573 19.1189 12.4206 18.6342 11.4095ZM13.7497 17.5C13.1176 17.4997 12.4958 17.3399 11.9419 17.0353C11.77 16.9404 11.5702 16.909 11.3775 16.9466C10.3504 17.1515 9.29073 17.1258 8.2748 16.8715C7.25887 16.6172 6.31204 16.1406 5.50262 15.4761C4.6932 14.8116 4.04136 13.9756 3.59412 13.0287C3.14689 12.0817 2.91541 11.0473 2.91638 9.99999C2.91724 9.53712 2.96303 9.07543 3.0531 8.62141C3.09072 8.4289 3.05947 8.22929 2.96481 8.05749C2.57312 7.34588 2.42311 6.52633 2.53736 5.72212C2.6516 4.91791 3.02391 4.17256 3.59827 3.59818C4.17264 3.02381 4.918 2.65149 5.7222 2.53724C6.52641 2.42299 7.34596 2.57299 8.05757 2.96467C8.22936 3.05984 8.42925 3.09126 8.62195 3.05337C9.64899 2.84851 10.7087 2.87415 11.7246 3.12844C12.7406 3.38273 13.6874 3.85934 14.4968 4.52388C15.3062 5.18842 15.9581 6.02433 16.4053 6.97131C16.8525 7.91828 17.084 8.95272 17.083 9.99999C17.0822 10.4629 17.0364 10.9246 16.9463 11.3786C16.9087 11.5711 16.94 11.7707 17.0347 11.9425C17.3491 12.5134 17.5092 13.1564 17.4993 13.8081C17.4894 14.4598 17.3098 15.0976 16.9781 15.6587C16.6465 16.2198 16.1743 16.6847 15.6082 17.0076C15.042 17.3305 14.4015 17.5002 13.7497 17.5Z" fill="#FE445C"/>
</g>
<defs>
<clipPath id="clip0_171_11154">
<rect width="20" height="20" fill="white"/>
</clipPath>
</defs>
</svg>
